<?xml version="1.0" encoding="utf-8"?>
<!-- Generator: Adobe Illustrator 23.1.0, SVG Export Plug-In . SVG Version: 6.00 Build 0)  -->
<svg version="1.1" id="Слой_1" xmlns="http://www.w3.org/2000/svg" xmlns:xlink="http://www.w3.org/1999/xlink" x="0px" y="0px"
	 viewBox="0 0 207 93" style="enable-background:new 0 0 207 93;" xml:space="preserve">
<style type="text/css">
	.st0{fill:#EC1C24;}
	.st1{fill:#898B8D;}
</style>
<g>
	<g>
		<path class="st0" d="M109.2,32.5c0-4.6-3.7-8.3-8.3-8.4H85.3v2.4v21.7h6.4v-7.3h5.6l5.7,7.3h6.8l-6.1-7.8
			C106.9,39.2,109.2,36.1,109.2,32.5z M91.7,29.4h8.4h0.5h0.3c1.6,0,3,1.4,3,3c0,1.6-1.3,3-2.9,3h-0.1l-0.8,0.1h-8.5L91.7,29.4
			L91.7,29.4z"/>
		<path class="st0" d="M39.7,24H24.1v24.1h6.4v-7.3h9.1c4.6,0,8.4-3.8,8.4-8.4C48,27.9,44.3,24.1,39.7,24z M39.7,35.5L39.7,35.5
			h-0.8h-8.4v-6.1H39h0.5h0.3c1.6,0,3,1.4,3,3C42.6,34.1,41.4,35.4,39.7,35.5z"/>
		<path class="st0" d="M67.4,24L67.4,24h-6.3l0,0l0,0L50.4,48.2h6.3l1.4-3.1h12.4l1.4,3.1h6.2L67.4,24L67.4,24z M68.1,39.7h-7.7
			l3.8-8.6L68.1,39.7z"/>
		<path class="st0" d="M176.6,48.2h6.3L172.1,24l0,0l0,0h-6.3l0,0l0,0l-10.7,24.2h6.3l1.4-3.1h12.4L176.6,48.2z M165.1,39.7l3.8-8.6
			l3.8,8.6H165.1z"/>
		<polygon class="st0" points="133.5,35.8 125.3,24 119,24 119,48.2 125.2,48.2 125.2,34.3 133.5,46 141.7,34.3 141.7,48.2 
			148,48.2 148,24 141.7,24 		"/>
	</g>
	<path class="st1" d="M178,59.7c-0.9,0-1.9,0.1-2.6,0.4V66c0,0.9,1.2,1.4,2.6,1.4c2.2,0,2.9-0.8,2.9-3.8
		C181,60.3,180.3,59.7,178,59.7 M178,68.5c-1.4,0-2.1-0.4-2.6-0.8v4.1h-1.2V59.3c1-0.5,2.7-0.7,3.8-0.7c2.9,0,4.3,1.1,4.3,4.9
		S181,68.5,178,68.5 M170.4,58.8h1.2v9c-1.1,0.5-2.7,0.7-3.8,0.7c-2.7,0-3.7-1-3.7-4.4v-5.3h1.2v5.1c0,2.9,0.6,3.5,2.7,3.5
		c0.9,0,1.7-0.1,2.4-0.3L170.4,58.8L170.4,58.8z M157.3,59.7c2.2,0,3,0.6,3,3.9c0,3.1-0.7,3.9-3,3.9c-2.2,0-2.9-0.8-2.9-3.9
		C154.4,60.3,155.1,59.7,157.3,59.7 M157.3,68.5c3,0,4.3-1.2,4.3-5c0-3.9-1.4-4.9-4.3-4.9c-2.9,0-4.3,1.1-4.3,4.9
		C153.1,67.3,154.4,68.5,157.3,68.5 M150.8,58.5c-1.4,0-2.3,0.5-2.7,1v-0.7h-1.2v9.5h1.2v-7.2c0-0.9,1.2-1.2,2.7-1.2
		c0.4,0,0.7,0,1,0.1v-1.2C151.4,58.6,151.1,58.5,150.8,58.5 M140.4,59.7c0.9,0,1.9,0.1,2.6,0.4V66c0,0.9-1.2,1.4-2.6,1.4
		c-2.2,0-2.9-0.8-2.9-3.8C137.5,60.3,138.2,59.7,140.4,59.7 M144.2,59.3c-1-0.5-2.7-0.7-3.8-0.7c-2.9,0-4.3,1.1-4.3,4.9
		c0,3.9,1.4,5,4.3,5c1.4,0,2.1-0.4,2.6-0.8c0,2.5-1.2,3.2-3.5,3.2c-0.7,0-2-0.2-2.7-0.5l-0.4,1.2c0.7,0.3,2.2,0.5,3,0.5
		c2.9,0,4.7-1,4.7-4.5L144.2,59.3L144.2,59.3z M127.7,60.2l0.4-1.2c-1.1-0.3-2.2-0.5-3.1-0.5c-2.5,0-3.7,0.7-3.7,2.9
		c0,1.8,1.2,2.4,3.5,2.5c1.8,0.1,2.3,0.6,2.3,1.6c0,1.5-0.8,1.8-2.3,1.8c-1,0-2.4-0.3-3-0.5l-0.4,1.1c1,0.3,2.5,0.5,3.4,0.5
		c2.5,0,3.7-0.7,3.7-3c0-1.8-1.1-2.6-3.5-2.7c-1.7-0.1-2.4-0.5-2.4-1.5c0-1.5,0.8-1.7,2.4-1.7C125.9,59.7,126.9,59.9,127.7,60.2
		 M115.5,59.7c1.8,0,2.4,0.5,2.5,2.9h-5.4C112.7,60.3,113.4,59.7,115.5,59.7 M115.5,58.5c-2.8,0-4.2,1.2-4.2,4.9c0,3.9,1.6,5,4.4,5
		c0.8,0,2.1-0.2,3.1-0.5l-0.3-1.1c-0.8,0.3-2,0.5-2.7,0.5c-2.2,0-3.2-0.7-3.2-3.7h6.8C119.3,59.6,118.1,58.5,115.5,58.5 M108.2,55.2
		c-0.6,0-0.8,0.1-0.8,0.7c0,0.7,0.2,0.8,0.8,0.8c0.6,0,0.8-0.1,0.8-0.8C109,55.3,108.8,55.2,108.2,55.2 M108.8,68.3h-1.2v-9.5h1.2
		V68.3z M101.1,59.7c0.9,0,1.9,0.1,2.6,0.4V66c0,0.9-1.2,1.4-2.6,1.4c-2.2,0-2.9-0.8-2.9-3.8C98.2,60.3,98.9,59.7,101.1,59.7
		 M105,59.3c-1-0.5-2.7-0.7-3.8-0.7c-2.9,0-4.3,1.1-4.3,4.9c0,3.9,1.4,5,4.3,5c1.4,0,2.1-0.4,2.6-0.8c0,2.5-1.2,3.2-3.5,3.2
		c-0.7,0-2-0.2-2.7-0.5l-0.4,1.1c0.7,0.3,2.2,0.5,3.1,0.5c2.9,0,4.7-1,4.7-4.5L105,59.3L105,59.3z M90.4,59.7c2.2,0,3,0.6,3,3.9
		c0,3.1-0.7,3.9-3,3.9c-2.2,0-2.9-0.8-2.9-3.9C87.5,60.3,88.2,59.7,90.4,59.7 M90.4,68.5c3,0,4.3-1.2,4.3-5c0-3.9-1.4-4.9-4.3-4.9
		c-2.9-0.1-4.3,1-4.3,4.9C86.1,67.3,87.5,68.5,90.4,68.5 M83.7,54.7h-1.2v11.2c0,1.4,0.4,2,1.2,2.7l1-0.8c-0.7-0.7-0.9-1.1-0.9-2
		L83.7,54.7L83.7,54.7z M75.8,59.7c2.2,0,3,0.6,3,3.9c0,3.1-0.7,3.9-3,3.9c-2.2,0-2.9-0.8-2.9-3.9C72.8,60.3,73.5,59.7,75.8,59.7
		 M75.8,68.5c3,0,4.3-1.2,4.3-5c0-3.9-1.4-4.9-4.3-4.9s-4.3,1.1-4.3,4.9S72.8,68.5,75.8,68.5 M62.8,60c0.7-0.2,1.5-0.3,2.4-0.3
		c2.1,0,2.7,0.6,2.7,3.5v5.1h1.2V63c0-3.4-1-4.4-3.7-4.4c-1.1,0-2.8,0.3-3.8,0.7v9h1.2L62.8,60L62.8,60z M55.4,58.5
		c-1.2,0-2.3,0.4-2.7,0.8v-4.6h-1.2v13.5h1.2V61c0-0.9,1.3-1.3,2.6-1.3c1.9,0,2.5,0.6,2.5,3.5v5.1H59V63
		C58.9,59.5,57.9,58.5,55.4,58.5 M49.2,66.9c-0.7,0.3-1.5,0.5-2.3,0.5c-2.2,0-3.2-0.8-3.2-3.8c0-3.2,1-3.8,3.2-3.8
		c0.8,0,1.6,0.1,2.3,0.4l0.4-1.1c-0.7-0.3-1.9-0.5-2.7-0.5c-2.9,0-4.6,1.1-4.6,4.9c0,3.9,1.6,5,4.6,5c0.8,0,2-0.2,2.7-0.5L49.2,66.9
		z M36.4,59.7c1.8,0,2.4,0.5,2.5,2.9h-5.4C33.7,60.3,34.4,59.7,36.4,59.7 M36.4,58.5c-2.8,0-4.3,1.3-4.3,5c0,3.9,1.6,5,4.4,5
		c0.8,0,2.1-0.2,3.1-0.5l-0.3-1.1c-0.8,0.3-2,0.5-2.7,0.5c-2.2,0-3.2-0.7-3.2-3.7h6.8C40.3,59.6,39.1,58.5,36.4,58.5 M27,65.1
		c0,1.6,0.4,2.3,1.8,2.3c0.7,0,1.3-0.1,1.8-0.3l0.3,1.1c-0.6,0.2-1.4,0.3-2.1,0.3c-2.2,0-3-0.6-3-3.4v-5.2h-1.7v-1.1h1.7v-2l1.2-0.5
		v2.5h3.5v1.1H27V65.1z"/>
</g>
</svg>
